<?xml version="1.0" encoding="UTF-8" standalone="no"?>
<svg
   width="210"
   height="297"
   viewBox="0 0 210 297"
   version="1.1"
   id="svg5"
   xml:space="preserve"
   sodipodi:docname="DNA.svg"
   inkscape:version="1.2.2 (732a01da63, 2022-12-09)"
   xmlns:inkscape="http://www.inkscape.org/namespaces/inkscape"
   xmlns:sodipodi="http://sodipodi.sourceforge.net/DTD/sodipodi-0.dtd"
   xmlns:xlink="http://www.w3.org/1999/xlink"
   xmlns="http://www.w3.org/2000/svg"
   xmlns:svg="http://www.w3.org/2000/svg"><sodipodi:namedview
     id="namedview12"
     pagecolor="#505050"
     bordercolor="#ffffff"
     borderopacity="1"
     inkscape:showpageshadow="0"
     inkscape:pageopacity="0"
     inkscape:pagecheckerboard="1"
     inkscape:deskcolor="#505050"
     showgrid="false"
     inkscape:zoom="2.7070707"
     inkscape:cx="105.09515"
     inkscape:cy="128.36754"
     inkscape:window-width="1920"
     inkscape:window-height="991"
     inkscape:window-x="-9"
     inkscape:window-y="-9"
     inkscape:window-maximized="1"
     inkscape:current-layer="svg5" /><defs
     id="defs2"><linearGradient
       id="linearGradient910"><stop
         style="stop-color:#ed3130;stop-opacity:1;"
         offset="0.22352941"
         id="stop906" /><stop
         style="stop-color:#f69412;stop-opacity:1;"
         offset="0.99058825"
         id="stop908" /></linearGradient><clipPath
       id="f5c4052ae2"><path
         d="M 142.382812 168 L 452.867188 168 L 452.867188 561 L 142.382812 561 Z M 142.382812 168 "
         clip-rule="nonzero"
         id="path179" /></clipPath><linearGradient
       xlink:href="#linearGradient910"
       id="linearGradient912"
       x1="51.487965"
       y1="72.03347"
       x2="51.57547"
       y2="208.71257"
       gradientUnits="userSpaceOnUse" /></defs><g
     id="layer1"
     style="opacity:0.7"><path
       fill="#000000"
       d="m 134.85185,92.864319 c -5.20243,1.738269 -10.09931,4.237634 -14.49109,9.420791 -1.04049,1.22904 -1.97637,2.50625 -2.80904,3.82475 l -0.0826,0.12111 -0.0138,0.033 c -1.52769,2.41541 -2.72508,4.96846 -3.64858,7.61234 l -0.0688,0.17341 -0.008,0.0523 c -1.22491,3.566 -1.95297,7.2889 -2.30943,11.05721 l -0.0193,0.0757 -0.0138,0.26012 c -0.45693,5.09645 -0.24361,10.27135 0.33031,15.2398 l -0.31104,0.0853 c -3.9032,1.0515 -7.87245,2.03143 -11.686183,3.26597 h -0.0041 c -0.159653,0.0248 -0.308292,0.0743 -0.443172,0.14589 -5.700643,1.88002 -11.036568,4.36288 -15.271454,8.55922 -2.789763,2.76224 -4.727597,5.90159 -6.047473,9.29693 l -0.01515,0.0248 -0.04817,0.13488 c -1.990131,5.18591 -2.558543,10.96087 -2.546159,16.901 l 0.0028,0.24223 c -1.71487,-0.17342 -3.465527,-0.41427 -5.246464,-0.71981 -4.529412,-0.77486 -11.695819,-2.00114 -17.283609,-2.95767 -0.791373,-0.13488 -1.542833,0.39775 -1.677713,1.18774 -0.136255,0.79138 0.396375,1.54284 1.186373,1.67909 5.589165,0.95516 12.755575,2.18282 17.284984,2.95768 1.966739,0.33581 3.900444,0.59731 5.791481,0.77623 0.262876,8.45188 1.344649,17.05514 0.514738,24.45828 -0.08946,0.79825 0.485836,1.51806 1.282716,1.60752 0.79688,0.0895 1.516683,-0.48583 1.606144,-1.28271 0.83404,-7.43617 -0.220208,-16.06972 -0.49134,-24.55875 7.619212,0.41702 14.491092,-0.50648 20.190361,-2.904 0.324805,0.0152 0.656496,-0.0785 0.935886,-0.28902 0.09221,-0.0688 0.174789,-0.14727 0.242229,-0.23397 3.676095,-1.72864 6.820945,-4.11102 9.310675,-7.18706 2.91088,-3.59352 4.95056,-8.15046 5.8837,-13.75476 l 0.005,-0.0138 c 0.0358,-0.11699 0.0564,-0.23673 0.0564,-0.35646 0.68402,-4.34637 0.71017,-9.31482 -0.0248,-14.94252 5.50246,-1.59101 10.74342,-3.53985 15.11869,-6.76866 l 0.0468,-0.0261 c 0.0826,-0.0523 0.15828,-0.1101 0.22709,-0.17617 2.67691,-2.02178 5.018,-4.53767 6.88289,-7.76234 4.45096,-7.69491 4.25278,-15.16548 2.98933,-22.68423 l -0.001,-0.011 -0.001,-0.003 c -0.0908,-0.54914 -0.18993,-1.09967 -0.29177,-1.65019 -0.54777,-2.94666 -1.22354,-5.901581 -1.76855,-8.884034 0.43078,-0.127995 0.86569,-0.250484 1.3006,-0.371599 6.4879,-1.804335 13.32812,-3.21642 20.12705,-7.840797 0.66201,-0.45005 0.83542,-1.35566 0.38399,-2.019037 -0.45142,-0.663377 -1.35565,-0.835414 -2.01903,-0.385364 -6.50166,4.42206 -13.06524,5.718538 -19.27099,7.444422 l -1.00195,0.284893 c -0.55328,-3.766938 -0.77348,-7.58618 -0.1569,-11.493502 0.59181,-3.753179 3.50682,-8.113306 3.50682,-8.113306 0.44317,-0.66888 0.26012,-1.571735 -0.40738,-2.014907 -0.66889,-0.443169 -1.57174,-0.260121 -2.01491,0.408763 0,0 -3.28111,4.987721 -3.95549,9.266645 -0.68678,4.357375 -0.40051,8.611527 0.2436,12.806498 z M 79.301524,167.61132 c -0.814772,3.66784 -1.057001,7.56553 -1.05012,11.53204 l 0.0055,0.48721 c 3.117323,0.18855 6.102525,0.14589 8.917063,-0.14864 -1.809838,-2.14015 -5.68,-7.00538 -7.872451,-11.87061 z m 5.03314,-10.86178 c -1.534578,1.89379 -2.698931,3.94723 -3.577013,6.12041 1.301985,6.93106 9.53778,15.77381 9.53778,15.77381 0.100468,0.1101 0.18167,0.23122 0.242229,0.35784 2.005271,-0.37161 3.907322,-0.8891 5.692388,-1.5566 -2.087855,-2.89712 -6.490645,-9.20747 -9.397396,-14.76773 -1.120312,-2.1429 -2.003897,-4.19222 -2.497988,-5.92773 z m 6.336495,-5.52861 c -1.365292,0.85331 -2.660392,1.81809 -3.866032,2.91914 -0.0179,1.72313 1.110675,4.33397 2.603963,7.1898 3.025114,5.78873 7.714176,12.40737 9.552916,14.92875 3.030614,-1.51255 5.642844,-3.5426 7.747204,-6.1328 -2.22548,-1.82222 -7.924745,-6.69434 -11.966947,-11.86786 -1.841492,-2.35623 -3.327899,-4.78678 -4.071104,-7.03703 z m 8.222033,-3.83163 c -1.944715,0.68127 -3.833004,1.452 -5.631832,2.36587 0.737698,2.94804 3.243948,6.29245 5.988295,9.34509 3.440755,3.82337 7.328805,7.15678 9.145525,8.65144 1.59238,-2.57506 2.75674,-5.58779 3.44076,-9.06158 -1.65157,-0.63034 -4.69457,-1.95435 -7.44167,-4.05046 -2.40302,-1.83323 -4.555559,-4.24864 -5.501078,-7.25036 z m 13.191858,-3.74079 c -3.47654,0.93589 -7.01364,1.79195 -10.43375,2.83931 0.75284,2.43468 2.55992,4.35463 4.50602,5.83966 2.18969,1.67083 4.58859,2.79527 6.13142,3.41873 0.40739,-3.59352 0.35646,-7.61921 -0.20369,-12.0977 z m 1.98463,-14.80488 c -0.13075,3.7284 0.0771,7.46919 0.48171,11.09712 3.90319,-1.13545 7.66737,-2.45807 11.02005,-4.3849 -0.3661,-0.14589 -0.74733,-0.30967 -1.14233,-0.48858 -3.35956,-1.5277 -7.75409,-4.17571 -10.35943,-6.22364 z m 1.83461,-12.0399 c -0.79275,2.70443 -1.29923,5.49282 -1.58412,8.31287 0.22296,0.2436 0.77485,0.8244 1.3295,1.2717 2.41954,1.94747 6.72049,4.54868 9.98232,6.03096 1.19326,0.54226 2.69756,0.94689 3.08155,1.04461 2.14703,-1.65569 4.04633,-3.6761 5.60293,-6.20299 -3.33616,-1.74103 -13.43272,-7.08246 -18.41218,-10.45715 z m 3.57426,-8.29223 c -1.04049,1.7424 -1.90481,3.55637 -2.61498,5.42264 4.48125,3.23293 15.41322,8.99138 18.83608,10.77232 1.1905,-2.53102 1.85526,-5.04002 2.15667,-7.53664 -2.72646,-1.72037 -12.29176,-7.55177 -18.37777,-8.65832 z m 5.58228,-6.92005 c -0.84642,0.7666 -1.67358,1.61991 -2.48147,2.57369 -0.48859,0.57667 -0.95103,1.16298 -1.38457,1.76304 5.6222,1.45613 13.21664,5.77084 16.86384,7.96605 0.0165,-2.37963 -0.23259,-4.75238 -0.60832,-7.12925 l -11.61737,-4.69457 c -0.28627,-0.0688 -0.55328,-0.22296 -0.75972,-0.46106 l -0.0124,-0.0165 z m 10.28236,-5.824509 c -2.70444,0.929004 -5.31941,2.097488 -7.80639,3.844018 1.88691,0.734941 6.45073,2.594331 9.30793,3.762811 -0.48446,-2.52277 -1.0336,-5.055161 -1.50154,-7.606829 z m 0,0"
       fill-opacity="1"
       fill-rule="evenodd"
       id="path184"
       clip-path="url(#clipPath199)"
       style="stroke-width:0.352333;fill-opacity:1;fill:url(#linearGradient912)" /></g></svg>
